<svg xmlns="http://www.w3.org/2000/svg" width="1600" height="1070" viewBox="0 0 1600 1070" role="img" aria-labelledby="title desc">
  <title id="title">Ops Evidence Synthesis architecture</title>
  <desc id="desc">Local-first evidence pipeline with sanitized code profiling, chunked provider review, citation validation, canonical review graph, read-only Cloud Run UI, and more-data re-score loop.</desc>
  <defs>
    <style>
      .bg { fill: #f6f8fb; }
      .band { fill: #ffffff; stroke: #d7dee8; stroke-width: 2; }
      .local { fill: #eef7f6; stroke: #166d6b; }
      .profile { fill: #f3f0fb; stroke: #674ca7; }
      .ai { fill: #eef3fb; stroke: #2f5f9e; }
      .gate { fill: #fff6e8; stroke: #a15c00; }
      .deliver { fill: #f2f6fb; stroke: #455a77; }
      .loop { fill: #f8fbef; stroke: #647a14; }
      .text { font-family: Inter, Arial, sans-serif; fill: #17202a; font-size: 27px; font-weight: 700; }
      .small { font-family: Inter, Arial, sans-serif; fill: #4a5565; font-size: 19px; font-weight: 500; }
      .tiny { font-family: Inter, Arial, sans-serif; fill: #627083; font-size: 16px; font-weight: 500; }
      .note { font-family: Inter, Arial, sans-serif; fill: #3b4655; font-size: 17px; font-weight: 600; }
      .arrow { stroke: #526071; stroke-width: 4; fill: none; marker-end: url(#arrowhead); }
      .softArrow { stroke: #674ca7; stroke-width: 4; fill: none; marker-end: url(#arrowheadProfile); stroke-dasharray: 10 8; }
      .loopArrow { stroke: #647a14; stroke-width: 4; fill: none; marker-end: url(#arrowheadLoop); stroke-dasharray: 12 10; }
    </style>
    <marker id="arrowhead" markerWidth="14" markerHeight="10" refX="13" refY="5" orient="auto">
      <path d="M0,0 L14,5 L0,10 Z" fill="#526071" />
    </marker>
    <marker id="arrowheadProfile" markerWidth="14" markerHeight="10" refX="13" refY="5" orient="auto">
      <path d="M0,0 L14,5 L0,10 Z" fill="#674ca7" />
    </marker>
    <marker id="arrowheadLoop" markerWidth="14" markerHeight="10" refX="13" refY="5" orient="auto">
      <path d="M0,0 L14,5 L0,10 Z" fill="#647a14" />
    </marker>
  </defs>
  <rect class="bg" x="0" y="0" width="1600" height="1070" />
  <text class="text" x="70" y="70">Ops Evidence Synthesis</text>
  <text class="small" x="70" y="104">Guarded AI investigation for DevOps incident review</text>
  <text class="tiny" x="70" y="132">Raw logs and raw source stay local. AI sees sanitized artifacts and approved profile context only.</text>

  <rect class="band local" x="70" y="175" width="330" height="165" rx="10" />
  <text class="text" x="100" y="222">Local raw inputs</text>
  <text class="small" x="100" y="258">Logs, source, config</text>
  <text class="small" x="100" y="289">Local sanitizers</text>
  <text class="tiny" x="100" y="318">raw_log_policy = not_uploaded</text>

  <rect class="band profile" x="455" y="175" width="330" height="165" rx="10" />
  <text class="text" x="485" y="222">Sanitized code</text>
  <text class="small" x="485" y="258">Component summaries</text>
  <text class="small" x="485" y="289">Env and config metadata</text>
  <text class="tiny" x="485" y="318">source excerpts are bounded</text>

  <rect class="band profile" x="840" y="175" width="330" height="165" rx="10" />
  <text class="text" x="870" y="222">System profile draft</text>
  <text class="small" x="870" y="258">Sanitized profile context</text>
  <text class="small" x="870" y="289">What is logged?</text>
  <text class="tiny" x="870" y="318">What orchestration is visible?</text>

  <rect class="band gate" x="1225" y="175" width="305" height="165" rx="10" />
  <text class="text" x="1255" y="222">Profile approval</text>
  <text class="small" x="1255" y="258">Human gate</text>
  <text class="small" x="1255" y="289">Context, not evidence</text>
  <text class="tiny" x="1255" y="318">runtime claims still need IDs</text>

  <rect class="band local" x="70" y="425" width="330" height="170" rx="10" />
  <text class="text" x="100" y="475">SHA evidence bundle</text>
  <text class="small" x="100" y="511">Canonical sanitized logs</text>
  <text class="small" x="100" y="543">Fixed evidence hash</text>
  <text class="tiny" x="100" y="573">review artifacts are reproducible</text>

  <rect class="band ai" x="455" y="425" width="330" height="170" rx="10" />
  <text class="text" x="485" y="475">Provider chunks</text>
  <text class="small" x="485" y="511">Per-provider paced calls</text>
  <text class="small" x="485" y="543">Full Evidence Items</text>
  <text class="tiny" x="485" y="573">not raw log rows</text>

  <rect class="band ai" x="840" y="425" width="330" height="170" rx="10" />
  <text class="text" x="870" y="475">Recorded output</text>
  <text class="small" x="870" y="511">Provider status</text>
  <text class="small" x="870" y="543">Output hashes</text>
  <text class="tiny" x="870" y="573">provider support is gated</text>

  <rect class="band gate" x="1225" y="425" width="305" height="170" rx="10" />
  <text class="text" x="1255" y="475">Provider stances</text>
  <text class="small" x="1255" y="511">Claimed / silent / conflict</text>
  <text class="small" x="1255" y="543">Support signal only</text>
  <text class="tiny" x="1255" y="573">priority, not truth probability</text>

  <rect class="band gate" x="255" y="680" width="330" height="165" rx="10" />
  <text class="text" x="285" y="727">Citation validation</text>
  <text class="small" x="285" y="763">Schema validation</text>
  <text class="small" x="285" y="794">Evidence reference checks</text>
  <text class="tiny" x="285" y="823">uncited claims do not promote</text>

  <rect class="band gate" x="635" y="680" width="330" height="165" rx="10" />
  <text class="text" x="665" y="727">Review arbitration</text>
  <text class="small" x="665" y="763">Promotion gates</text>
  <text class="small" x="665" y="794">Missing evidence requests</text>
  <text class="tiny" x="665" y="823">human-gated causal judgement</text>

  <rect class="band deliver" x="1015" y="680" width="330" height="165" rx="10" />
  <text class="text" x="1045" y="727">Read-only delivery</text>
  <text class="small" x="1045" y="763">Cloud Run public UI</text>
  <text class="small" x="1045" y="794">Precomputed review pages</text>
  <text class="tiny" x="1045" y="823">no public write path</text>

  <rect class="band loop" x="455" y="900" width="690" height="95" rx="10" />
  <text class="text" x="485" y="944">More data re-score loop</text>
  <text class="small" x="485" y="977">needs_more_data -&gt; evidence_collected -&gt; primary_candidate</text>

  <path class="softArrow" d="M400 258 L455 258" />
  <path class="softArrow" d="M785 258 L840 258" />
  <path class="softArrow" d="M1170 258 L1225 258" />
  <path class="softArrow" d="M1377 340 C1377 380 1110 375 1005 425" />

  <path class="arrow" d="M235 340 L235 425" />
  <path class="arrow" d="M400 510 L455 510" />
  <path class="arrow" d="M785 510 L840 510" />
  <path class="arrow" d="M1170 510 L1225 510" />
  <path class="arrow" d="M1378 595 C1378 650 980 640 800 680" />
  <path class="arrow" d="M235 595 C235 640 340 645 420 680" />
  <path class="arrow" d="M585 762 L635 762" />
  <path class="arrow" d="M965 762 L1015 762" />

  <path class="loopArrow" d="M1180 845 C1180 890 1145 925 1145 948" />
  <path class="loopArrow" d="M455 948 C250 948 205 790 255 762" />

  <text class="note" x="70" y="1026">Autonomy boundary: AI may draft profiles, investigate, request more evidence, and re-score.</text>
  <text class="note" x="70" y="1050">Human approval gates source-profile use, final causal judgement, and operational action.</text>
</svg>
